# xmcd CD database file
#
# Track frame offsets:
#	150
#	30880
#	53907
#	77412
#	100268
#	122437
#	140327
#	162682
#	182609
#	207707
#	230646
#	251455
#	273520
#	295510
#	317375
#	339428
#
# Disc length: 4816 seconds
#
# Revision: 0
# Processed by: cddbd v1.5.2PL0 Copyright (c) Steve Scherf et al.
# Submitted via: CDex 1.81
#
DISCID=d812ce10
DTITLE=Marc Anthony - Grandes Exitos CD 2
DYEAR=2014
DGENRE=Salsa
TTITLE0=El Cantante
TTITLE1=No me ames
TTITLE2=Da la Vuelta
TTITLE3=Tu Amor me hace bien
TTITLE4=Se me sigue olvidando
TTITLE5=Mi Gente
TTITLE6=Contra la Corriente
TTITLE7=El ultimo Beso
TTITLE8=Escapamonos
TTITLE9=Asi como hoy
TTITLE10=Te amare
TTITLE11=Hasta que te conoci
TTITLE12=No sabes como duele
TTITLE13=Celos
TTITLE14=Ne me conoces
TTITLE15=Valio la Pena
EXTD=YEAR: 2014
EXTT0=
EXTT1=
EXTT2=
EXTT3=
EXTT4=
EXTT5=
EXTT6=
EXTT7=
EXTT8=
EXTT9=
EXTT10=
EXTT11=
EXTT12=
EXTT13=
EXTT14=
EXTT15=
PLAYORDER=
